<svg width="219" height="219" viewBox="0 0 219 219" fill="none" xmlns="http://www.w3.org/2000/svg">
<circle cx="109.297" cy="109.698" r="108.339" fill="white" stroke="#CAB6FE" stroke-dasharray="4.71 4.71"/>
<path d="M128.305 135.925H90.8651V127.685L109.985 108.005C114.252 103.471 116.385 99.7381 116.385 96.8048C116.385 94.6181 115.692 92.8581 114.305 91.5248C112.972 90.1915 111.238 89.5248 109.105 89.5248C104.838 89.5248 101.718 91.7115 99.7451 96.0848L90.4651 90.6448C92.1718 86.8581 94.6518 83.9515 97.9051 81.9248C101.212 79.8448 104.892 78.8048 108.945 78.8048C114.012 78.8048 118.358 80.4048 121.985 83.6048C125.612 86.7515 127.425 91.0181 127.425 96.4048C127.425 102.218 124.358 108.191 118.225 114.325L107.265 125.285H128.305V135.925Z" fill="#7547DD"/>
</svg>
