<svg width="219" height="219" viewBox="0 0 219 219" fill="none" xmlns="http://www.w3.org/2000/svg">
<circle cx="109.482" cy="109.225" r="108.339" fill="white" stroke="#CAB6FE" stroke-dasharray="4.71 4.71"/>
<path d="M127.61 90.5709L117.13 104.171C121.024 105.291 124.117 107.264 126.41 110.091C128.757 112.918 129.93 116.278 129.93 120.171C129.93 125.931 127.984 130.438 124.09 133.691C120.304 136.944 115.584 138.571 109.93 138.571C105.504 138.571 101.584 137.558 98.1705 135.531C94.7571 133.451 92.2771 130.518 90.7305 126.731L100.17 121.291C101.504 125.611 104.757 127.771 109.93 127.771C112.757 127.771 114.944 127.104 116.49 125.771C118.09 124.384 118.89 122.518 118.89 120.171C118.89 117.878 118.09 116.038 116.49 114.651C114.944 113.264 112.757 112.571 109.93 112.571H107.53L103.29 106.171L114.33 91.7709H92.4105V81.4509H127.61V90.5709Z" fill="#7547DD"/>
</svg>
