<svg width="95" height="94" viewBox="0 0 95 94" fill="none" xmlns="http://www.w3.org/2000/svg">
<rect x="1.16675" y="0.5" width="93" height="93" rx="46.5" fill="white"/>
<g clip-path="url(#clip0_603_98)">
<path d="M29.6667 70.4H21.5667V53.3H29.6667C31.1571 53.3 32.3667 54.5087 32.3667 56V67.7C32.3667 69.1913 31.1571 70.4 29.6667 70.4Z" fill="#7547DD"/>
<path d="M58.4667 61.4C58.4577 60.7601 58.0995 60.1518 57.4821 59.8287C49.2327 55.5105 46.6686 53.3 43.1667 53.3C39.0978 53.3 36.4698 55.3655 34.1667 56.9V66.8C44.4186 67.8251 46.7037 73.1 51.7167 73.1C53.5167 73.1 53.9298 72.9543 55.6695 71.7365C60.2424 68.5361 65.0655 63.3468 68.8329 58.8918C69.1299 58.5399 69.2667 58.1618 69.2667 57.8C69.2667 56.9 68.3667 56 67.4389 56C67.0824 56 66.6972 56.126 66.3696 56.4329C64.4607 58.2302 59.3667 63.2 59.3667 63.2C58.2651 64.1828 57.1959 65.0054 55.7667 65C55.0935 64.9973 54.4158 64.9497 53.7624 64.7103L48.2022 63.1236C47.826 62.9562 47.6667 62.6258 47.6667 62.3C47.6667 61.8428 48.015 61.4 48.5667 61.4C49.1859 61.4 54.099 62.6502 56.2905 63.1542C56.4156 63.183 56.5416 63.1982 56.6667 63.2C57.6648 63.2126 58.4793 62.3936 58.4667 61.4Z" fill="#7547DD"/>
<path d="M28.3167 33.5C28.1124 33.5 27.9072 33.4541 27.7137 33.3578L25.9137 32.4578C25.4412 32.2202 25.1667 31.7441 25.1667 31.25C25.1658 30.4805 25.8066 29.8991 26.5167 29.9C26.712 29.9 26.9343 29.9495 27.1215 30.0422L28.9215 30.9422C29.3868 31.1753 29.6667 31.6658 29.6667 32.15C29.6667 32.9051 29.0529 33.5 28.3167 33.5Z" fill="#7547DD"/>
<path d="M37.3185 27.2C36.8226 27.2 36.3456 26.9264 36.1089 26.4539L35.2089 24.6539C35.1072 24.4505 35.0667 24.2615 35.0667 24.05C35.0667 23.339 35.6418 22.7009 36.4167 22.7C36.9225 22.7 37.3904 22.9799 37.6244 23.4461L38.5244 25.2461C38.6198 25.4387 38.6667 25.6439 38.6667 25.8446C38.6703 26.5988 38.0583 27.2 37.3185 27.2Z" fill="#7547DD"/>
<path d="M49.9167 25.4C49.1715 25.4 48.5667 24.7952 48.5667 24.05V22.25C48.5667 21.5048 49.1715 20.9 49.9167 20.9C50.6619 20.9 51.2667 21.5048 51.2667 22.25V24.05C51.2667 24.7952 50.6619 25.4 49.9167 25.4Z" fill="#7547DD"/>
<path d="M71.5168 33.5C71.7211 33.5 71.9262 33.4541 72.1197 33.3578L73.9197 32.4578C74.3931 32.2211 74.6668 31.745 74.6668 31.25C74.6668 30.4805 74.0269 29.9 73.3168 29.9C73.1206 29.9009 72.8991 29.9495 72.7119 30.0422L70.9119 30.9422C70.4457 31.1762 70.1659 31.6667 70.1668 32.15C70.1668 32.906 70.7806 33.5 71.5168 33.5Z" fill="#7547DD"/>
<path d="M62.5159 27.2C63.0109 27.2 63.4879 26.9273 63.7246 26.4548L64.6246 24.6548C64.7254 24.4514 64.7668 24.2624 64.7668 24.05C64.7668 23.339 64.1917 22.7009 63.4168 22.7009C62.911 22.7 62.4421 22.9799 62.209 23.447L61.309 25.247C61.2127 25.4387 61.1668 25.6439 61.1668 25.8446C61.1641 26.5988 61.7752 27.2 62.5159 27.2Z" fill="#7547DD"/>
<path d="M33.3477 52.3406C33.2991 52.6538 33.2667 52.9733 33.2667 53.3C33.2667 53.3171 33.2694 53.3333 33.2694 53.3504C33.5943 53.7959 33.8508 54.2963 33.9975 54.8435C36.2448 53.3189 39.0366 51.5 43.1667 51.5C45.0315 51.5 46.6227 52.0004 48.5667 52.9436V45.2H45.7389C45.3375 46.7507 43.9416 47.9 42.2667 47.9C40.2786 47.9 38.6667 46.2881 38.6667 44.3C38.6667 42.3119 40.2786 40.7 42.2667 40.7C43.9416 40.7 45.3375 41.8493 45.7389 43.4H49.4667C49.9644 43.4 50.3667 43.8023 50.3667 44.3V53.8796C51.0516 54.2513 51.7716 54.6509 52.578 55.1027C53.0208 55.3511 53.4852 55.6103 53.9667 55.8785V41.9726L52.1847 40.1915C51.6501 40.5065 51.0327 40.7 50.3667 40.7C48.3786 40.7 46.7667 39.0881 46.7667 37.1C46.7667 35.1119 48.3786 33.5 50.3667 33.5C52.3548 33.5 53.9667 35.1119 53.9667 37.1C53.9667 37.766 53.7732 38.3834 53.4573 38.9189L55.503 40.9637C55.6722 41.132 55.7667 41.3606 55.7667 41.6V56.8694C56.2221 57.1169 56.7 57.3752 57.2004 57.6407L60.2667 57.2996V50.4722C58.716 50.0708 57.5667 48.6749 57.5667 47C57.5667 45.0119 59.1786 43.4 61.1667 43.4C63.1548 43.4 64.7667 45.0119 64.7667 47C64.7667 48.6749 63.6174 50.0708 62.0667 50.4722V57.0998L63.1998 56.9729C63.9567 56.2448 64.6479 55.5815 65.1366 55.1216C65.7693 54.5276 66.5856 54.2 67.4379 54.2C67.9194 54.2 68.3865 54.3044 68.8149 54.4907C69.6591 53.4197 70.1667 52.0706 70.1667 50.6C70.1667 48.6002 69.2325 46.8227 67.7799 45.6689C68.7105 44.4008 69.2667 42.8429 69.2667 41.15C69.2667 36.9254 65.8413 33.5 61.6167 33.5C60.5043 33.5 59.4513 33.743 58.4973 34.1696C57.4668 31.1636 54.6228 29 51.2667 29C48.0744 29 45.3411 30.9566 44.1954 33.7358C43.0434 32.4875 41.3991 31.7 39.5667 31.7C36.0873 31.7 33.2667 34.5206 33.2667 38C33.2667 38.6372 33.363 39.2519 33.5394 39.8315C30.3543 40.1465 27.8667 42.8321 27.8667 46.1C27.8667 49.3013 30.2553 51.9383 33.3477 52.3406Z" fill="#7547DD"/>
</g>
<rect x="1.16675" y="0.5" width="93" height="93" rx="46.5" stroke="#F7F4FF"/>
<defs>
<clipPath id="clip0_603_98">
<rect width="54" height="54" fill="white" transform="translate(20.6667 20)"/>
</clipPath>
</defs>
</svg>
