<svg width="94" height="94" viewBox="0 0 94 94" fill="none" xmlns="http://www.w3.org/2000/svg">
<rect x="0.500244" y="0.5" width="93" height="93" rx="46.5" fill="white"/>
<path d="M51.5001 53.3C53.4884 53.3 55.1001 51.6882 55.1001 49.7C55.1001 47.7118 53.4884 46.1 51.5001 46.1C49.5119 46.1 47.9001 47.7118 47.9001 49.7C47.9001 51.6882 49.5119 53.3 51.5001 53.3Z" fill="#7547DD"/>
<path d="M53.3001 55.1H47.7453L41.9727 49.3274C41.6469 49.0016 41.1969 48.8 40.7001 48.8C39.6741 48.8 38.9001 49.6127 38.9001 50.6C38.9001 51.0968 39.1017 51.5469 39.4275 51.8727L46.1001 58.7V65H55.1001V61.4C55.1001 60.9032 55.5033 60.5 56.0001 60.5C56.4969 60.5 56.9001 60.9032 56.9001 61.4V65H59.6001V61.4C59.6001 57.9206 56.7795 55.1 53.3001 55.1Z" fill="#7547DD"/>
<path d="M44.3003 47C44.7971 47 45.2003 46.5968 45.2003 46.1V27.2C45.2003 26.7032 44.7971 26.3 44.3003 26.3H24.5003C24.0035 26.3 23.6003 26.7032 23.6003 27.2V46.1C23.6003 46.5968 24.0035 47 24.5003 47H44.3003ZM38.9003 30.8H42.5003V42.5H38.9003V30.8ZM32.6003 32.6H36.2003V42.5H32.6003V32.6ZM29.9003 42.5H26.3003V34.4H29.9003V42.5Z" fill="#7547DD"/>
<path d="M65.9003 39.8H47.9003V43.4H62.3003V67.7H31.7003V49.7H28.1003V67.7C28.1003 69.6881 29.7122 71.3 31.7003 71.3H65.9003C67.8884 71.3 69.5003 69.6881 69.5003 67.7V43.4C69.5003 41.4119 67.8884 39.8 65.9003 39.8ZM65.9003 57.8C64.9067 57.8 64.1003 56.9936 64.1003 56C64.1003 55.0064 64.9067 54.2 65.9003 54.2C66.8939 54.2 67.7003 55.0064 67.7003 56C67.7003 56.9936 66.8939 57.8 65.9003 57.8Z" fill="#7547DD"/>
<path d="M60.0503 34.4C60.7955 34.4 61.4003 35.0048 61.4003 35.75C61.4003 36.4952 60.7955 37.1 60.0503 37.1H56.4503C55.7042 37.1 55.1003 36.4952 55.1003 35.75C55.1003 35.0048 55.7042 34.4 56.4503 34.4H60.0503Z" fill="#7547DD"/>
<path d="M47.9001 24.95C47.9001 24.2048 48.504 23.6 49.2501 23.6C49.9953 23.6 50.6001 24.2048 50.6001 24.95V28.55C50.6001 29.2952 49.9953 29.9 49.2501 29.9C48.504 29.9 47.9001 29.2952 47.9001 28.55V24.95Z" fill="#7547DD"/>
<path d="M56.3954 26.6951C56.9228 26.1677 57.7778 26.1677 58.3052 26.6951C58.8326 27.2225 58.8326 28.0766 58.3052 28.604L55.6052 31.304C55.0778 31.8314 54.2228 31.8314 53.6954 31.304C53.1689 30.7766 53.1689 29.9225 53.6954 29.3951L56.3954 26.6951Z" fill="#7547DD"/>
<rect x="0.500244" y="0.5" width="93" height="93" rx="46.5" stroke="#F7F4FF"/>
</svg>
