<svg width="95" height="94" viewBox="0 0 95 94" fill="none" xmlns="http://www.w3.org/2000/svg">
<rect x="0.833496" y="0.5" width="93" height="93" rx="46.5" fill="white"/>
<path d="M29.6933 31.52L26.0933 28.82C25.6955 28.5221 25.6145 27.9578 25.9133 27.56C26.2112 27.1622 26.7764 27.0821 27.1733 27.38L30.7733 30.08C31.1711 30.3779 31.2521 30.9422 30.9533 31.3391C30.6563 31.7369 30.092 31.8188 29.6933 31.52Z" fill="#7547DD"/>
<path d="M25.9133 45.74C25.6145 45.3431 25.6955 44.7788 26.0933 44.4809L29.6933 41.7809C30.0902 41.483 30.6536 41.5622 30.9524 41.9609C31.2512 42.3578 31.1702 42.9221 30.7724 43.22L27.1724 45.92C26.7746 46.2188 26.2103 46.1369 25.9133 45.74Z" fill="#7547DD"/>
<path d="M28.4334 37.1H23.9334C23.4357 37.1 23.0334 36.6977 23.0334 36.2C23.0334 35.7023 23.4357 35.3 23.9334 35.3H28.4334C28.9311 35.3 29.3334 35.7023 29.3334 36.2C29.3334 36.6977 28.9311 37.1 28.4334 37.1Z" fill="#7547DD"/>
<path d="M47.2911 25.4C47.2911 25.4 40.1334 25.4 37.4334 22.7C35.7918 23.9645 34.7352 25.7195 34.7334 27.65C34.7325 29.2988 35.4894 31.0961 37.4334 32.6V37.55C37.4334 40.1573 38.6277 42.4153 40.7265 43.5403C40.659 43.7753 39.9318 46.4861 39.8706 46.7147C40.7706 47.9009 42.3969 48.8008 43.9206 48.8008C45.4443 48.8008 47.0706 47.9009 47.9706 46.7147C47.9112 46.46 47.2848 43.8041 47.2182 43.5403C49.479 42.4163 50.9334 40.16 50.9334 37.55V29.0423C50.9334 27.0308 49.3026 25.4 47.2911 25.4Z" fill="#7547DD"/>
<path d="M68.4755 24.5H50.282C51.7571 25.4747 52.7336 27.146 52.7336 29.0423V37.55C52.7336 39.8153 51.8417 41.8682 50.399 43.4C50.9336 43.3964 53.1818 43.4 57.2336 43.4V45.9425C57.2336 46.5608 57.7403 47 58.2884 47C58.4828 47 58.6817 46.9388 58.8644 46.8173L64.0133 43.4H68.4746C70.1738 43.4 71.5508 42.023 71.6336 40.3238V27.5762C71.5508 25.877 70.1738 24.5 68.4755 24.5ZM64.1573 34.3973L58.2101 37.9073C58.1102 37.9658 57.9896 38 57.86 38C57.5144 38 57.2336 37.7579 57.2336 37.46V30.44C57.2336 30.1412 57.5144 29.9 57.86 29.9C57.9896 29.9 58.1102 29.9342 58.2101 29.9918L64.1573 33.5018C64.3238 33.599 64.4336 33.7637 64.4336 33.95C64.4336 34.1363 64.3238 34.301 64.1573 34.3973Z" fill="#7547DD"/>
<path d="M49.6014 47.9H49.3215C48.0237 49.5416 45.9222 50.6 43.9215 50.6C41.9253 50.6 39.8283 49.5452 38.5296 47.9099C30.8121 48.1151 25.7334 58.2986 25.7334 67.1375C25.7334 68.9393 27.1905 70.4009 28.9923 70.4C32.0784 70.3991 36.6792 70.409 39.7203 70.4C41.7795 70.3937 42.8163 68.8106 42.8334 67.25C42.8505 65.6669 41.8173 64.1072 39.7266 64.1H32.0334C31.5366 64.1 31.1334 63.6968 31.1334 63.2C31.1334 62.7032 31.5366 62.3 32.0334 62.3H38.3334V55.2485C38.3334 54.6689 38.8023 54.2 39.3819 54.2H48.9858C49.5645 54.2 50.0334 54.6689 50.0334 55.2485V62.3H56.3334C56.8302 62.3 57.2334 62.7032 57.2334 63.2C57.2334 63.6968 56.8302 64.1 56.3334 64.1H48.6834C46.6044 64.1 45.5523 65.6894 45.5334 67.25C45.5145 68.8394 46.5693 70.4 48.6834 70.4H59.3709C61.1736 70.4 62.6334 68.9384 62.6334 67.1375C62.6334 58.4489 57.8472 47.9 49.6014 47.9Z" fill="#7547DD"/>
<rect x="0.833496" y="0.5" width="93" height="93" rx="46.5" stroke="#F7F4FF"/>
</svg>
