<svg width="1342" height="538" viewBox="0 0 1342 538" fill="none" xmlns="http://www.w3.org/2000/svg">
<g filter="url(#filter0_dd_87_1740)">
<path d="M482.897 290.31C485.527 290.453 488.176 290.526 490.842 290.526C570.255 290.526 634.633 226.148 634.633 146.734C634.633 67.3207 570.255 2.94316 490.842 2.94316C429.254 2.94316 376.71 41.6625 356.224 96.0868C324.561 165.056 294.446 194.423 275.565 204.251L365.127 327.501C405.308 295.716 450.741 291.945 482.897 290.31Z" fill="#F7F4FF"/>
<path d="M157.795 240.62C155.165 240.477 152.516 240.404 149.851 240.404C70.4369 240.404 6.05933 304.782 6.05933 384.196C6.05932 463.609 70.4369 527.987 149.851 527.987C211.438 527.987 263.982 489.268 284.468 434.843C316.132 365.874 365.127 327.501 365.127 327.501L275.565 204.251C235.384 236.036 189.951 238.985 157.795 240.62Z" fill="#F7F4FF"/>
<path d="M1184.18 290.31C1186.81 290.453 1189.45 290.526 1192.12 290.526C1271.53 290.526 1335.91 226.148 1335.91 146.734C1335.91 67.3206 1271.53 2.94305 1192.12 2.94305C1130.53 2.94305 1077.99 41.6624 1057.5 96.0867C1025.84 165.056 995.724 194.423 976.843 204.251L1066.4 327.501C1106.59 295.716 1152.02 291.945 1184.18 290.31Z" fill="#F7F4FF"/>
<path d="M859.073 240.62C856.443 240.477 853.794 240.404 851.129 240.404C771.715 240.404 707.337 304.782 707.337 384.195C707.337 463.609 771.715 527.987 851.129 527.987C912.716 527.987 965.26 489.267 985.747 434.843C1017.41 365.874 1066.4 327.501 1066.4 327.501L976.843 204.251C936.662 236.036 891.229 238.985 859.073 240.62Z" fill="#F7F4FF"/>
<path d="M509.61 290.31C506.98 290.453 504.332 290.526 501.666 290.526C422.252 290.526 357.875 226.148 357.875 146.734C357.875 67.3206 422.252 2.94305 501.666 2.94305C563.254 2.94305 615.798 41.6624 636.284 96.0867C667.947 165.056 698.062 194.423 716.942 204.251L627.381 327.501C587.2 295.716 541.767 291.945 509.61 290.31Z" fill="#F7F4FF"/>
<path d="M834.713 240.62C837.343 240.477 839.991 240.404 842.657 240.404C922.071 240.404 986.448 304.782 986.448 384.195C986.448 463.609 922.071 527.987 842.657 527.987C781.07 527.987 728.525 489.267 708.039 434.843C676.376 365.874 627.381 327.501 627.381 327.501L716.942 204.251C757.123 236.036 802.557 238.985 834.713 240.62Z" fill="#F7F4FF"/>
</g>
<defs>
<filter id="filter0_dd_87_1740" x="0.0593262" y="0.943054" width="1341.85" height="537.044" filterUnits="userSpaceOnUse" color-interpolation-filters="sRGB">
<feFlood flood-opacity="0" result="BackgroundImageFix"/>
<feColorMatrix in="SourceAlpha" type="matrix" values="0 0 0 0 0 0 0 0 0 0 0 0 0 0 0 0 0 0 127 0" result="hardAlpha"/>
<feMorphology radius="2" operator="erode" in="SourceAlpha" result="effect1_dropShadow_87_1740"/>
<feOffset dy="2"/>
<feGaussianBlur stdDeviation="2"/>
<feComposite in2="hardAlpha" operator="out"/>
<feColorMatrix type="matrix" values="0 0 0 0 0 0 0 0 0 0 0 0 0 0 0 0 0 0 0.06 0"/>
<feBlend mode="normal" in2="BackgroundImageFix" result="effect1_dropShadow_87_1740"/>
<feColorMatrix in="SourceAlpha" type="matrix" values="0 0 0 0 0 0 0 0 0 0 0 0 0 0 0 0 0 0 127 0" result="hardAlpha"/>
<feMorphology radius="2" operator="erode" in="SourceAlpha" result="effect2_dropShadow_87_1740"/>
<feOffset dy="4"/>
<feGaussianBlur stdDeviation="4"/>
<feComposite in2="hardAlpha" operator="out"/>
<feColorMatrix type="matrix" values="0 0 0 0 0 0 0 0 0 0 0 0 0 0 0 0 0 0 0.1 0"/>
<feBlend mode="normal" in2="effect1_dropShadow_87_1740" result="effect2_dropShadow_87_1740"/>
<feBlend mode="normal" in="SourceGraphic" in2="effect2_dropShadow_87_1740" result="shape"/>
</filter>
</defs>
</svg>
