<svg width="358" height="678" viewBox="0 0 358 678" fill="none" xmlns="http://www.w3.org/2000/svg">
<g filter="url(#filter0_dd_106_574)">
<path d="M165.659 242.956C165.586 244.285 165.55 245.623 165.55 246.97C165.55 287.099 198.081 319.63 238.21 319.63C278.34 319.63 310.871 287.099 310.871 246.97C310.871 215.849 291.305 189.297 263.803 178.945C228.952 162.945 214.112 147.727 209.146 138.187L146.865 183.444C162.927 203.748 164.833 226.706 165.659 242.956Z" fill="#F7F4FF"/>
<path d="M190.768 78.6749C190.84 77.346 190.877 76.0076 190.877 74.6606C190.877 34.5313 158.346 2.00001 118.216 2.00001C78.0872 2 45.5559 34.5312 45.5559 74.6606C45.5559 105.782 65.1216 132.333 92.6232 142.686C127.475 158.686 146.865 183.444 146.865 183.444L209.146 138.187C193.084 117.882 191.594 94.9241 190.768 78.6749Z" fill="#F7F4FF"/>
<path d="M165.659 597.325C165.586 598.654 165.55 599.993 165.55 601.339C165.55 641.469 198.081 674 238.21 674C278.34 674 310.871 641.469 310.871 601.339C310.871 570.218 291.305 543.666 263.804 533.314C228.952 517.314 214.112 502.097 209.146 492.556L146.866 537.813C162.927 558.118 164.833 581.076 165.659 597.325Z" fill="#F7F4FF"/>
<path d="M190.768 433.044C190.84 431.715 190.877 430.377 190.877 429.03C190.877 388.901 158.346 356.37 118.217 356.37C78.0872 356.37 45.556 388.901 45.556 429.03C45.5559 460.151 65.1216 486.703 92.6232 497.055C127.475 513.055 146.866 537.813 146.866 537.813L209.146 492.556C193.084 472.252 191.594 449.294 190.768 433.044Z" fill="#F7F4FF"/>
<path d="M165.659 256.454C165.586 255.125 165.55 253.787 165.55 252.44C165.55 212.311 198.081 179.779 238.21 179.779C278.34 179.779 310.871 212.311 310.871 252.44C310.871 283.561 291.305 310.113 263.804 320.465C228.952 336.465 214.112 351.683 209.146 361.223L146.866 315.966C162.927 295.662 164.833 272.703 165.659 256.454Z" fill="#F7F4FF"/>
<path d="M190.768 420.735C190.84 422.064 190.877 423.402 190.877 424.749C190.877 464.878 158.346 497.41 118.217 497.41C78.0872 497.41 45.5559 464.878 45.556 424.749C45.556 393.628 65.1216 367.076 92.6232 356.724C127.475 340.724 146.866 315.966 146.866 315.966L209.146 361.223C193.084 381.527 191.594 404.486 190.768 420.735Z" fill="#F7F4FF"/>
</g>
<circle cx="118.412" cy="75" r="52.3874" fill="white" stroke="#CAB6FE" stroke-width="0.483549" stroke-dasharray="2.28 2.28"/>
<path d="M108.8 62.3985L108.585 62.4744L108.648 62.6934L109.96 67.2449L110.026 67.4755L110.257 67.4107L115.042 66.0696V87.1194V87.3611H115.283H120.606H120.848V87.1194V60.1194V59.8776H120.606H115.978H115.936L115.897 59.8914L108.8 62.3985Z" fill="#7547DD" stroke="#CAB6FE" stroke-width="0.483549"/>
<line x1="227.041" y1="75.2288" x2="203.041" y2="75.2288" stroke="#CAB6FE" stroke-width="0.457602" stroke-dasharray="2.15 2.15"/>
<g filter="url(#filter1_dd_106_574)">
<rect x="231.041" y="22" width="123" height="106" rx="3.47016" fill="#FDFCFF" shape-rendering="crispEdges"/>
</g>
<g filter="url(#filter2_dd_106_574)">
<rect x="3.87082" y="197" width="123" height="106" rx="3.47016" fill="#FDFCFF" shape-rendering="crispEdges"/>
</g>
<line x1="154.871" y1="250.229" x2="130.871" y2="250.229" stroke="#CAB6FE" stroke-width="0.457602" stroke-dasharray="2.15 2.15"/>
<circle cx="239.5" cy="250" r="52.3874" fill="white" stroke="#CAB6FE" stroke-width="0.483549" stroke-dasharray="2.28 2.28"/>
<path d="M248.016 263.5H230.318V259.605L239.356 250.303C241.373 248.16 242.381 246.395 242.381 245.008C242.381 243.975 242.053 243.143 241.398 242.513C240.768 241.882 239.948 241.567 238.94 241.567C236.923 241.567 235.448 242.601 234.516 244.668L230.129 242.097C230.936 240.307 232.108 238.933 233.646 237.975C235.209 236.992 236.948 236.5 238.864 236.5C241.259 236.5 243.314 237.256 245.028 238.769C246.743 240.256 247.6 242.273 247.6 244.819C247.6 247.567 246.15 250.391 243.251 253.29L238.07 258.471H248.016V263.5Z" fill="#7547DD"/>
<g filter="url(#filter3_dd_106_574)">
<rect x="4.87082" y="547" width="123" height="106" rx="3.47016" fill="#FDFCFF" shape-rendering="crispEdges"/>
</g>
<line x1="155.871" y1="600.229" x2="131.871" y2="600.229" stroke="#CAB6FE" stroke-width="0.457602" stroke-dasharray="2.15 2.15"/>
<circle cx="240.5" cy="600" r="52.3874" fill="white" stroke="#CAB6FE" stroke-width="0.483549" stroke-dasharray="2.28 2.28"/>
<path d="M247.999 604.844H250.892V609.781H247.999V614.371H242.638V609.781H229.871V604.844L238.858 587.371H244.567L235.618 604.844H242.638V598.441H247.999V604.844Z" fill="#7547DD"/>
<circle cx="118.5" cy="425" r="52.3874" fill="white" stroke="#CAB6FE" stroke-width="0.483549" stroke-dasharray="2.28 2.28"/>
<path d="M127.034 415.762L122.08 422.191C123.92 422.72 125.382 423.653 126.466 424.989C127.576 426.325 128.13 427.913 128.13 429.754C128.13 432.476 127.21 434.607 125.37 436.144C123.58 437.682 121.349 438.451 118.676 438.451C116.584 438.451 114.731 437.972 113.118 437.014C111.504 436.031 110.332 434.644 109.601 432.855L114.063 430.283C114.693 432.325 116.231 433.346 118.676 433.346C120.013 433.346 121.046 433.031 121.777 432.401C122.534 431.745 122.912 430.863 122.912 429.754C122.912 428.67 122.534 427.8 121.777 427.144C121.046 426.489 120.013 426.161 118.676 426.161H117.542L115.538 423.136L120.756 416.329H110.395V411.451H127.034V415.762Z" fill="#7547DD"/>
<line x1="227.129" y1="425.229" x2="203.129" y2="425.229" stroke="#CAB6FE" stroke-width="0.457602" stroke-dasharray="2.15 2.15"/>
<g filter="url(#filter4_dd_106_574)">
<rect x="231.129" y="372" width="123" height="106" rx="3.47016" fill="#FDFCFF" shape-rendering="crispEdges"/>
</g>
<defs>
<filter id="filter0_dd_106_574" x="42.5559" y="7.62939e-06" width="271.315" height="678" filterUnits="userSpaceOnUse" color-interpolation-filters="sRGB">
<feFlood flood-opacity="0" result="BackgroundImageFix"/>
<feColorMatrix in="SourceAlpha" type="matrix" values="0 0 0 0 0 0 0 0 0 0 0 0 0 0 0 0 0 0 127 0" result="hardAlpha"/>
<feOffset dy="1"/>
<feGaussianBlur stdDeviation="1"/>
<feComposite in2="hardAlpha" operator="out"/>
<feColorMatrix type="matrix" values="0 0 0 0 0 0 0 0 0 0 0 0 0 0 0 0 0 0 0.06 0"/>
<feBlend mode="normal" in2="BackgroundImageFix" result="effect1_dropShadow_106_574"/>
<feColorMatrix in="SourceAlpha" type="matrix" values="0 0 0 0 0 0 0 0 0 0 0 0 0 0 0 0 0 0 127 0" result="hardAlpha"/>
<feOffset dy="1"/>
<feGaussianBlur stdDeviation="1.5"/>
<feComposite in2="hardAlpha" operator="out"/>
<feColorMatrix type="matrix" values="0 0 0 0 0 0 0 0 0 0 0 0 0 0 0 0 0 0 0.1 0"/>
<feBlend mode="normal" in2="effect1_dropShadow_106_574" result="effect2_dropShadow_106_574"/>
<feBlend mode="normal" in="SourceGraphic" in2="effect2_dropShadow_106_574" result="shape"/>
</filter>
<filter id="filter1_dd_106_574" x="228.041" y="20" width="129" height="112" filterUnits="userSpaceOnUse" color-interpolation-filters="sRGB">
<feFlood flood-opacity="0" result="BackgroundImageFix"/>
<feColorMatrix in="SourceAlpha" type="matrix" values="0 0 0 0 0 0 0 0 0 0 0 0 0 0 0 0 0 0 127 0" result="hardAlpha"/>
<feOffset dy="1"/>
<feGaussianBlur stdDeviation="1"/>
<feComposite in2="hardAlpha" operator="out"/>
<feColorMatrix type="matrix" values="0 0 0 0 0 0 0 0 0 0 0 0 0 0 0 0 0 0 0.06 0"/>
<feBlend mode="normal" in2="BackgroundImageFix" result="effect1_dropShadow_106_574"/>
<feColorMatrix in="SourceAlpha" type="matrix" values="0 0 0 0 0 0 0 0 0 0 0 0 0 0 0 0 0 0 127 0" result="hardAlpha"/>
<feOffset dy="1"/>
<feGaussianBlur stdDeviation="1.5"/>
<feComposite in2="hardAlpha" operator="out"/>
<feColorMatrix type="matrix" values="0 0 0 0 0 0 0 0 0 0 0 0 0 0 0 0 0 0 0.1 0"/>
<feBlend mode="normal" in2="effect1_dropShadow_106_574" result="effect2_dropShadow_106_574"/>
<feBlend mode="normal" in="SourceGraphic" in2="effect2_dropShadow_106_574" result="shape"/>
</filter>
<filter id="filter2_dd_106_574" x="0.870819" y="195" width="129" height="112" filterUnits="userSpaceOnUse" color-interpolation-filters="sRGB">
<feFlood flood-opacity="0" result="BackgroundImageFix"/>
<feColorMatrix in="SourceAlpha" type="matrix" values="0 0 0 0 0 0 0 0 0 0 0 0 0 0 0 0 0 0 127 0" result="hardAlpha"/>
<feOffset dy="1"/>
<feGaussianBlur stdDeviation="1"/>
<feComposite in2="hardAlpha" operator="out"/>
<feColorMatrix type="matrix" values="0 0 0 0 0 0 0 0 0 0 0 0 0 0 0 0 0 0 0.06 0"/>
<feBlend mode="normal" in2="BackgroundImageFix" result="effect1_dropShadow_106_574"/>
<feColorMatrix in="SourceAlpha" type="matrix" values="0 0 0 0 0 0 0 0 0 0 0 0 0 0 0 0 0 0 127 0" result="hardAlpha"/>
<feOffset dy="1"/>
<feGaussianBlur stdDeviation="1.5"/>
<feComposite in2="hardAlpha" operator="out"/>
<feColorMatrix type="matrix" values="0 0 0 0 0 0 0 0 0 0 0 0 0 0 0 0 0 0 0.1 0"/>
<feBlend mode="normal" in2="effect1_dropShadow_106_574" result="effect2_dropShadow_106_574"/>
<feBlend mode="normal" in="SourceGraphic" in2="effect2_dropShadow_106_574" result="shape"/>
</filter>
<filter id="filter3_dd_106_574" x="1.87082" y="545" width="129" height="112" filterUnits="userSpaceOnUse" color-interpolation-filters="sRGB">
<feFlood flood-opacity="0" result="BackgroundImageFix"/>
<feColorMatrix in="SourceAlpha" type="matrix" values="0 0 0 0 0 0 0 0 0 0 0 0 0 0 0 0 0 0 127 0" result="hardAlpha"/>
<feOffset dy="1"/>
<feGaussianBlur stdDeviation="1"/>
<feComposite in2="hardAlpha" operator="out"/>
<feColorMatrix type="matrix" values="0 0 0 0 0 0 0 0 0 0 0 0 0 0 0 0 0 0 0.06 0"/>
<feBlend mode="normal" in2="BackgroundImageFix" result="effect1_dropShadow_106_574"/>
<feColorMatrix in="SourceAlpha" type="matrix" values="0 0 0 0 0 0 0 0 0 0 0 0 0 0 0 0 0 0 127 0" result="hardAlpha"/>
<feOffset dy="1"/>
<feGaussianBlur stdDeviation="1.5"/>
<feComposite in2="hardAlpha" operator="out"/>
<feColorMatrix type="matrix" values="0 0 0 0 0 0 0 0 0 0 0 0 0 0 0 0 0 0 0.1 0"/>
<feBlend mode="normal" in2="effect1_dropShadow_106_574" result="effect2_dropShadow_106_574"/>
<feBlend mode="normal" in="SourceGraphic" in2="effect2_dropShadow_106_574" result="shape"/>
</filter>
<filter id="filter4_dd_106_574" x="228.129" y="370" width="129" height="112" filterUnits="userSpaceOnUse" color-interpolation-filters="sRGB">
<feFlood flood-opacity="0" result="BackgroundImageFix"/>
<feColorMatrix in="SourceAlpha" type="matrix" values="0 0 0 0 0 0 0 0 0 0 0 0 0 0 0 0 0 0 127 0" result="hardAlpha"/>
<feOffset dy="1"/>
<feGaussianBlur stdDeviation="1"/>
<feComposite in2="hardAlpha" operator="out"/>
<feColorMatrix type="matrix" values="0 0 0 0 0 0 0 0 0 0 0 0 0 0 0 0 0 0 0.06 0"/>
<feBlend mode="normal" in2="BackgroundImageFix" result="effect1_dropShadow_106_574"/>
<feColorMatrix in="SourceAlpha" type="matrix" values="0 0 0 0 0 0 0 0 0 0 0 0 0 0 0 0 0 0 127 0" result="hardAlpha"/>
<feOffset dy="1"/>
<feGaussianBlur stdDeviation="1.5"/>
<feComposite in2="hardAlpha" operator="out"/>
<feColorMatrix type="matrix" values="0 0 0 0 0 0 0 0 0 0 0 0 0 0 0 0 0 0 0.1 0"/>
<feBlend mode="normal" in2="effect1_dropShadow_106_574" result="effect2_dropShadow_106_574"/>
<feBlend mode="normal" in="SourceGraphic" in2="effect2_dropShadow_106_574" result="shape"/>
</filter>
</defs>
</svg>
