<svg width="235" height="26" viewBox="0 0 235 26" fill="none" xmlns="http://www.w3.org/2000/svg">
<g clip-path="url(#clip0_106_1057)">
<mask id="mask0_106_1057" style="mask-type:luminance" maskUnits="userSpaceOnUse" x="0" y="0" width="235" height="26">
<path d="M234.121 0.0234375H0.5V25.0234H234.121V0.0234375Z" fill="white"/>
</mask>
<g mask="url(#mask0_106_1057)">
<path d="M34.1206 2.60962H44.4612L43.3473 4.8363H36.3485V9.66776H44.4612L43.3473 11.8944H36.3485V17.5031H44.4612L43.3473 19.7298H34.1206V2.60962ZM46.0846 11.5373C46.0846 10.1089 46.596 8.88357 47.6189 7.86121C48.6417 6.83886 49.8747 6.32775 51.318 6.32775C52.7471 6.32775 53.9731 6.83886 54.996 7.86121C56.0187 8.88357 56.5302 10.1089 56.5302 11.5373V19.7298H54.2814V11.5373C54.2814 10.725 53.9872 10.0318 53.3987 9.4577C52.8241 8.86952 52.1305 8.57543 51.318 8.57543C50.5052 8.57543 49.8047 8.86952 49.2162 9.4577C48.6277 10.0318 48.3335 10.725 48.3335 11.5373V19.7298L46.0846 20.8431V11.5373ZM60.0047 8.30235C61.3217 6.9859 62.9051 6.32775 64.7546 6.32775C66.6041 6.32775 68.1804 6.9859 69.4835 8.30235C70.8005 9.60474 71.4591 11.1802 71.4591 13.0287V18.3223C71.4591 20.1709 70.8005 21.7464 69.4835 23.0488C68.1804 24.3652 66.6041 25.0234 64.7546 25.0234C63.3393 25.0234 62.0573 24.6173 60.9084 23.805C59.7594 22.9927 58.9467 21.9424 58.4704 20.654H60.9505C61.3427 21.2983 61.8752 21.8094 62.5478 22.1875C63.2203 22.5797 63.9559 22.7757 64.7546 22.7757C65.9875 22.7757 67.0384 22.3415 67.9072 21.4733C68.7899 20.6051 69.2313 19.5548 69.2313 18.3223C69.2313 18.2803 69.2242 18.2314 69.2103 18.1753C69.2103 18.1053 69.2103 18.0562 69.2103 18.0283C67.9352 19.1626 66.4499 19.7298 64.7546 19.7298C62.9051 19.7298 61.3217 19.0786 60.0047 17.7762C58.7016 16.4597 58.0501 14.8773 58.0501 13.0287C58.0501 11.1802 58.7016 9.60474 60.0047 8.30235ZM67.9072 9.87782C67.0384 8.99556 65.9875 8.55442 64.7546 8.55442C63.5215 8.55442 62.4637 8.99556 61.581 9.87782C60.7122 10.746 60.2779 11.7963 60.2779 13.0287C60.2779 14.2612 60.7122 15.3115 61.581 16.1797C62.4637 17.0479 63.5215 17.4821 64.7546 17.4821C65.9875 17.4821 67.0384 17.0479 67.9072 16.1797C68.7899 15.3115 69.2313 14.2612 69.2313 13.0287C69.2313 11.7963 68.7899 10.746 67.9072 9.87782ZM75.6319 6.32775V19.7298H73.383V7.44108L75.6319 6.32775ZM74.4969 2.60962C74.8191 2.60962 75.0854 2.72161 75.2956 2.94572C75.5198 3.15579 75.6319 3.41482 75.6319 3.72296C75.6319 4.0311 75.5198 4.29709 75.2956 4.5212C75.0714 4.73126 74.8052 4.8363 74.4969 4.8363C74.1886 4.8363 73.9225 4.73126 73.6983 4.5212C73.4881 4.29709 73.383 4.0311 73.383 3.72296C73.383 3.41482 73.4881 3.15579 73.6983 2.94572C73.9225 2.72161 74.1886 2.60962 74.4969 2.60962ZM77.8774 11.5373C77.8774 10.1089 78.3888 8.88357 79.4117 7.86121C80.4346 6.83886 81.6675 6.32775 83.1107 6.32775C84.5399 6.32775 85.7659 6.83886 86.7888 7.86121C87.8117 8.88357 88.323 10.1089 88.323 11.5373V19.7298H86.0742V11.5373C86.0742 10.725 85.78 10.0318 85.1915 9.4577C84.617 8.86952 83.9235 8.57543 83.1107 8.57543C82.298 8.57543 81.5975 8.86952 81.009 9.4577C80.4205 10.0318 80.1263 10.725 80.1263 11.5373V19.7298L77.8774 20.8431V11.5373ZM91.7764 8.30235C93.0936 6.9859 94.6768 6.32775 96.5264 6.32775C98.3759 6.32775 99.9522 6.9859 101.255 8.30235C102.573 9.60474 103.231 11.1802 103.231 13.0287C103.231 13.3789 103.196 13.7499 103.126 14.1421H92.1968C92.449 15.1224 92.9744 15.9276 93.7731 16.5578C94.5718 17.174 95.4896 17.4821 96.5264 17.4821C97.8294 17.4821 98.9158 17.013 99.7841 16.0747H102.495C101.935 17.181 101.115 18.0703 100.036 18.7425C98.9709 19.4006 97.8019 19.7298 96.5264 19.7298C94.6768 19.7298 93.0936 19.0786 91.7764 17.7762C90.4734 16.4597 89.8218 14.8773 89.8218 13.0287C89.8218 11.1802 90.4734 9.60474 91.7764 8.30235ZM92.1968 11.9154H100.856C100.618 10.9351 100.093 10.1299 99.2796 9.49971C98.481 8.86952 97.5632 8.55442 96.5264 8.55442C95.4896 8.55442 94.5648 8.86952 93.7521 9.49971C92.9534 10.1299 92.4349 10.9351 92.1968 11.9154ZM106.35 8.30235C107.666 6.9859 109.25 6.32775 111.099 6.32775C112.949 6.32775 114.525 6.9859 115.828 8.30235C117.145 9.60474 117.804 11.1802 117.804 13.0287C117.804 13.3789 117.769 13.7499 117.699 14.1421H106.77C107.022 15.1224 107.548 15.9276 108.346 16.5578C109.145 17.174 110.062 17.4821 111.099 17.4821C112.403 17.4821 113.488 17.013 114.357 16.0747H117.068C116.507 17.181 115.688 18.0703 114.609 18.7425C113.544 19.4006 112.374 19.7298 111.099 19.7298C109.25 19.7298 107.666 19.0786 106.35 17.7762C105.046 16.4597 104.395 14.8773 104.395 13.0287C104.395 11.1802 105.046 9.60474 106.35 8.30235ZM106.77 11.9154H115.429C115.19 10.9351 114.665 10.1299 113.853 9.49971C113.054 8.86952 112.136 8.55442 111.099 8.55442C110.062 8.55442 109.137 8.86952 108.325 9.49971C107.527 10.1299 107.008 10.9351 106.77 11.9154ZM119.338 13.0287C119.338 11.1802 119.99 9.60474 121.293 8.30235C122.596 6.9859 124.172 6.32775 126.022 6.32775V8.55442C124.788 8.55442 123.737 8.99556 122.869 9.87782C122 10.746 121.566 11.7963 121.566 13.0287V19.7298L119.338 20.8431V13.0287ZM129.776 6.32775V19.7298H127.527V7.44108L129.776 6.32775ZM128.641 2.60962C128.964 2.60962 129.23 2.72161 129.44 2.94572C129.664 3.15579 129.776 3.41482 129.776 3.72296C129.776 4.0311 129.664 4.29709 129.44 4.5212C129.216 4.73126 128.95 4.8363 128.641 4.8363C128.334 4.8363 128.067 4.73126 127.842 4.5212C127.632 4.29709 127.527 4.0311 127.527 3.72296C127.527 3.41482 127.632 3.15579 127.842 2.94572C128.067 2.72161 128.334 2.60962 128.641 2.60962ZM132.022 11.5373C132.022 10.1089 132.533 8.88357 133.556 7.86121C134.578 6.83886 135.812 6.32775 137.256 6.32775C138.685 6.32775 139.91 6.83886 140.934 7.86121C141.956 8.88357 142.468 10.1089 142.468 11.5373V19.7298H140.219V11.5373C140.219 10.725 139.925 10.0318 139.336 9.4577C138.761 8.86952 138.067 8.57543 137.256 8.57543C136.442 8.57543 135.742 8.86952 135.154 9.4577C134.565 10.0318 134.271 10.725 134.271 11.5373V19.7298L132.022 20.8431V11.5373ZM145.942 8.30235C147.258 6.9859 148.843 6.32775 150.692 6.32775C152.542 6.32775 154.118 6.9859 155.421 8.30235C156.737 9.60474 157.397 11.1802 157.397 13.0287V18.3223C157.397 20.1709 156.737 21.7464 155.421 23.0488C154.118 24.3652 152.542 25.0234 150.692 25.0234C149.276 25.0234 147.994 24.6173 146.846 23.805C145.697 22.9927 144.884 21.9424 144.408 20.654H146.888C147.279 21.2983 147.813 21.8094 148.485 22.1875C149.158 22.5797 149.894 22.7757 150.692 22.7757C151.924 22.7757 152.975 22.3415 153.845 21.4733C154.728 20.6051 155.169 19.5548 155.169 18.3223C155.169 18.2803 155.161 18.2314 155.148 18.1753C155.148 18.1053 155.148 18.0562 155.148 18.0283C153.872 19.1626 152.387 19.7298 150.692 19.7298C148.843 19.7298 147.258 19.0786 145.942 17.7762C144.639 16.4597 143.988 14.8773 143.988 13.0287C143.988 11.1802 144.639 9.60474 145.942 8.30235ZM153.845 9.87782C152.975 8.99556 151.924 8.55442 150.692 8.55442C149.459 8.55442 148.401 8.99556 147.519 9.87782C146.649 10.746 146.215 11.7963 146.215 13.0287C146.215 14.2612 146.649 15.3115 147.519 16.1797C148.401 17.0479 149.459 17.4821 150.692 17.4821C151.924 17.4821 152.975 17.0479 153.845 16.1797C154.728 15.3115 155.169 14.2612 155.169 13.0287C155.169 11.7963 154.728 10.746 153.845 9.87782Z" fill="white"/>
<path d="M166.017 24.1613C166.017 10.8304 176.572 0.0234375 189.592 0.0234375H234.121C234.121 13.3544 223.566 24.1613 210.547 24.1613H166.017Z" fill="#B7D164"/>
<path d="M10.7568 6.27344C10.7568 2.82166 13.555 0.0234375 17.0068 0.0234375H30.075C30.075 3.47522 27.2767 6.27344 23.825 6.27344H10.7568Z" fill="#CAB6FE"/>
<path d="M10.7568 25.0234C10.7568 21.5716 13.555 18.7734 17.0068 18.7734H30.075C30.075 22.2252 27.2767 25.0234 23.825 25.0234H10.7568Z" fill="#CAB6FE"/>
<path d="M1.09766 15.9324C1.09766 12.1668 4.15026 9.11426 7.91584 9.11426H24.9613C24.9613 12.8798 21.9087 15.9324 18.1431 15.9324H1.09766Z" fill="#B7D164"/>
<path d="M182.929 6.35407C184.154 6.35407 185.283 6.6784 186.316 7.3272C187.363 7.96185 188.168 8.80806 188.732 9.86581H186.006C185.153 9.01961 184.127 8.59651 182.929 8.59651C181.717 8.59651 180.685 9.04076 179.832 9.92928C178.978 10.8036 178.551 11.8614 178.551 13.1025C178.551 14.3436 178.978 15.4014 179.832 16.2758C180.685 17.1501 181.717 17.5874 182.929 17.5874C183.645 17.5874 184.313 17.4251 184.932 17.1008C185.552 16.7765 186.062 16.3322 186.46 15.768H188.98C188.47 16.9809 187.665 17.9682 186.564 18.7297C185.476 19.4772 184.265 19.851 182.929 19.851C181.112 19.851 179.563 19.1952 178.283 17.8835C177.002 16.5578 176.362 14.9641 176.362 13.1025C176.362 11.2408 177.002 9.65426 178.283 8.34264C179.563 7.01688 181.112 6.35407 182.929 6.35407ZM190.238 13.1025V2.60962L192.427 3.73084V13.1025C192.427 14.3577 192.853 15.4225 193.707 16.2969C194.575 17.1713 195.614 17.6085 196.826 17.6085V19.851C195.008 19.851 193.452 19.1952 192.159 17.8835C190.878 16.5578 190.238 14.9641 190.238 13.1025ZM207.882 6.35407V14.6045C207.882 16.043 207.38 17.2771 206.374 18.3066C205.369 19.3362 204.164 19.851 202.76 19.851C201.356 19.851 200.152 19.3362 199.146 18.3066C198.141 17.263 197.639 16.0289 197.639 14.6045V6.35407H199.828V14.6045C199.828 15.4225 200.117 16.1277 200.695 16.72C201.273 17.2982 201.961 17.5874 202.76 17.5874C203.559 17.5874 204.247 17.2982 204.825 16.72C205.404 16.1277 205.693 15.4225 205.693 14.6045V6.35407H207.882ZM209.76 13.1025V2.60962L211.948 3.73084V8.06763C213.202 6.92525 214.668 6.35407 216.347 6.35407C218.164 6.35407 219.713 7.01688 220.993 8.34264C222.274 9.65426 222.914 11.2408 222.914 13.1025C222.914 14.9641 222.274 16.5578 220.993 17.8835C219.713 19.1952 218.164 19.851 216.347 19.851C214.516 19.851 212.96 19.1952 211.68 17.8835C210.4 16.5578 209.76 14.9641 209.76 13.1025ZM216.347 17.6085C217.559 17.6085 218.592 17.1713 219.445 16.2969C220.298 15.4084 220.725 14.3436 220.725 13.1025C220.725 11.8614 220.298 10.8036 219.445 9.92928C218.592 9.05491 217.559 8.61766 216.347 8.61766C215.135 8.61766 214.096 9.05491 213.229 9.92928C212.376 10.8036 211.948 11.8614 211.948 13.1025C211.948 14.3577 212.376 15.4225 213.229 16.2969C214.082 17.1713 215.122 17.6085 216.347 17.6085Z" fill="#303030"/>
</g>
</g>
<defs>
<clipPath id="clip0_106_1057">
<rect width="233.621" height="25" fill="white" transform="translate(0.5 0.0234375)"/>
</clipPath>
</defs>
</svg>
