<svg width="234" height="26" viewBox="0 0 234 26" fill="none" xmlns="http://www.w3.org/2000/svg">
<mask id="mask0_603_46" style="mask-type:luminance" maskUnits="userSpaceOnUse" x="0" y="0" width="234" height="26">
<path d="M233.621 0.5H0V25.5H233.621V0.5Z" fill="white"/>
</mask>
<g mask="url(#mask0_603_46)">
<path d="M33.6206 3.08618H43.9612L42.8473 5.31286H35.8485V10.1443H43.9612L42.8473 12.371H35.8485V17.9797H43.9612L42.8473 20.2064H33.6206V3.08618ZM45.5846 12.0139C45.5846 10.5855 46.096 9.36013 47.1189 8.33777C48.1417 7.31542 49.3747 6.80431 50.818 6.80431C52.2471 6.80431 53.4731 7.31542 54.496 8.33777C55.5187 9.36013 56.0302 10.5855 56.0302 12.0139V20.2064H53.7814V12.0139C53.7814 11.2016 53.4872 10.5084 52.8987 9.93426C52.3241 9.34608 51.6305 9.05199 50.818 9.05199C50.0052 9.05199 49.3047 9.34608 48.7162 9.93426C48.1277 10.5084 47.8335 11.2016 47.8335 12.0139V20.2064L45.5846 21.3197V12.0139ZM59.5047 8.77891C60.8217 7.46246 62.4051 6.80431 64.2546 6.80431C66.1041 6.80431 67.6804 7.46246 68.9835 8.77891C70.3005 10.0813 70.9591 11.6568 70.9591 13.5053V18.7989C70.9591 20.6475 70.3005 22.223 68.9835 23.5254C67.6804 24.8418 66.1041 25.5 64.2546 25.5C62.8393 25.5 61.5573 25.0939 60.4084 24.2816C59.2594 23.4693 58.4467 22.419 57.9704 21.1306H60.4505C60.8427 21.7749 61.3752 22.286 62.0478 22.6641C62.7203 23.0563 63.4559 23.2523 64.2546 23.2523C65.4875 23.2523 66.5384 22.8181 67.4072 21.9499C68.2899 21.0817 68.7313 20.0314 68.7313 18.7989C68.7313 18.7569 68.7242 18.708 68.7103 18.6519C68.7103 18.5819 68.7103 18.5328 68.7103 18.5049C67.4352 19.6392 65.9499 20.2064 64.2546 20.2064C62.4051 20.2064 60.8217 19.5552 59.5047 18.2528C58.2016 16.9363 57.5501 15.3539 57.5501 13.5053C57.5501 11.6568 58.2016 10.0813 59.5047 8.77891ZM67.4072 10.3544C66.5384 9.47212 65.4875 9.03098 64.2546 9.03098C63.0215 9.03098 61.9637 9.47212 61.081 10.3544C60.2122 11.2226 59.7779 12.2729 59.7779 13.5053C59.7779 14.7378 60.2122 15.7881 61.081 16.6563C61.9637 17.5245 63.0215 17.9587 64.2546 17.9587C65.4875 17.9587 66.5384 17.5245 67.4072 16.6563C68.2899 15.7881 68.7313 14.7378 68.7313 13.5053C68.7313 12.2729 68.2899 11.2226 67.4072 10.3544ZM75.1319 6.80431V20.2064H72.883V7.91764L75.1319 6.80431ZM73.9969 3.08618C74.3191 3.08618 74.5854 3.19817 74.7956 3.42228C75.0198 3.63235 75.1319 3.89138 75.1319 4.19952C75.1319 4.50766 75.0198 4.77365 74.7956 4.99776C74.5714 5.20782 74.3052 5.31286 73.9969 5.31286C73.6886 5.31286 73.4225 5.20782 73.1983 4.99776C72.9881 4.77365 72.883 4.50766 72.883 4.19952C72.883 3.89138 72.9881 3.63235 73.1983 3.42228C73.4225 3.19817 73.6886 3.08618 73.9969 3.08618ZM77.3774 12.0139C77.3774 10.5855 77.8888 9.36013 78.9117 8.33777C79.9346 7.31542 81.1675 6.80431 82.6107 6.80431C84.0399 6.80431 85.2659 7.31542 86.2888 8.33777C87.3117 9.36013 87.823 10.5855 87.823 12.0139V20.2064H85.5742V12.0139C85.5742 11.2016 85.28 10.5084 84.6915 9.93426C84.117 9.34608 83.4235 9.05199 82.6107 9.05199C81.798 9.05199 81.0975 9.34608 80.509 9.93426C79.9205 10.5084 79.6263 11.2016 79.6263 12.0139V20.2064L77.3774 21.3197V12.0139ZM91.2764 8.77891C92.5936 7.46246 94.1768 6.80431 96.0264 6.80431C97.8759 6.80431 99.4522 7.46246 100.755 8.77891C102.073 10.0813 102.731 11.6568 102.731 13.5053C102.731 13.8555 102.696 14.2265 102.626 14.6187H91.6968C91.949 15.599 92.4744 16.4042 93.2731 17.0344C94.0718 17.6506 94.9896 17.9587 96.0264 17.9587C97.3294 17.9587 98.4158 17.4896 99.2841 16.5513H101.995C101.435 17.6576 100.615 18.5469 99.5363 19.2191C98.4709 19.8772 97.3019 20.2064 96.0264 20.2064C94.1768 20.2064 92.5936 19.5552 91.2764 18.2528C89.9734 16.9363 89.3218 15.3539 89.3218 13.5053C89.3218 11.6568 89.9734 10.0813 91.2764 8.77891ZM91.6968 12.392H100.356C100.118 11.4117 99.5928 10.6065 98.7796 9.97627C97.981 9.34608 97.0632 9.03098 96.0264 9.03098C94.9896 9.03098 94.0648 9.34608 93.2521 9.97627C92.4534 10.6065 91.9349 11.4117 91.6968 12.392ZM105.85 8.77891C107.166 7.46246 108.75 6.80431 110.599 6.80431C112.449 6.80431 114.025 7.46246 115.328 8.77891C116.645 10.0813 117.304 11.6568 117.304 13.5053C117.304 13.8555 117.269 14.2265 117.199 14.6187H106.27C106.522 15.599 107.048 16.4042 107.846 17.0344C108.645 17.6506 109.562 17.9587 110.599 17.9587C111.903 17.9587 112.988 17.4896 113.857 16.5513H116.568C116.007 17.6576 115.188 18.5469 114.109 19.2191C113.044 19.8772 111.874 20.2064 110.599 20.2064C108.75 20.2064 107.166 19.5552 105.85 18.2528C104.546 16.9363 103.895 15.3539 103.895 13.5053C103.895 11.6568 104.546 10.0813 105.85 8.77891ZM106.27 12.392H114.929C114.69 11.4117 114.165 10.6065 113.353 9.97627C112.554 9.34608 111.636 9.03098 110.599 9.03098C109.562 9.03098 108.637 9.34608 107.825 9.97627C107.027 10.6065 106.508 11.4117 106.27 12.392ZM118.838 13.5053C118.838 11.6568 119.49 10.0813 120.793 8.77891C122.096 7.46246 123.672 6.80431 125.522 6.80431V9.03098C124.288 9.03098 123.237 9.47212 122.369 10.3544C121.5 11.2226 121.066 12.2729 121.066 13.5053V20.2064L118.838 21.3197V13.5053ZM129.276 6.80431V20.2064H127.027V7.91764L129.276 6.80431ZM128.141 3.08618C128.464 3.08618 128.73 3.19817 128.94 3.42228C129.164 3.63235 129.276 3.89138 129.276 4.19952C129.276 4.50766 129.164 4.77365 128.94 4.99776C128.716 5.20782 128.45 5.31286 128.141 5.31286C127.834 5.31286 127.567 5.20782 127.342 4.99776C127.132 4.77365 127.027 4.50766 127.027 4.19952C127.027 3.89138 127.132 3.63235 127.342 3.42228C127.567 3.19817 127.834 3.08618 128.141 3.08618ZM131.522 12.0139C131.522 10.5855 132.033 9.36013 133.056 8.33777C134.078 7.31542 135.312 6.80431 136.756 6.80431C138.185 6.80431 139.41 7.31542 140.434 8.33777C141.456 9.36013 141.968 10.5855 141.968 12.0139V20.2064H139.719V12.0139C139.719 11.2016 139.425 10.5084 138.836 9.93426C138.261 9.34608 137.567 9.05199 136.756 9.05199C135.942 9.05199 135.242 9.34608 134.654 9.93426C134.065 10.5084 133.771 11.2016 133.771 12.0139V20.2064L131.522 21.3197V12.0139ZM145.442 8.77891C146.758 7.46246 148.343 6.80431 150.192 6.80431C152.042 6.80431 153.618 7.46246 154.921 8.77891C156.237 10.0813 156.897 11.6568 156.897 13.5053V18.7989C156.897 20.6475 156.237 22.223 154.921 23.5254C153.618 24.8418 152.042 25.5 150.192 25.5C148.776 25.5 147.494 25.0939 146.346 24.2816C145.197 23.4693 144.384 22.419 143.908 21.1306H146.388C146.779 21.7749 147.313 22.286 147.985 22.6641C148.658 23.0563 149.394 23.2523 150.192 23.2523C151.424 23.2523 152.475 22.8181 153.345 21.9499C154.228 21.0817 154.669 20.0314 154.669 18.7989C154.669 18.7569 154.661 18.708 154.648 18.6519C154.648 18.5819 154.648 18.5328 154.648 18.5049C153.372 19.6392 151.887 20.2064 150.192 20.2064C148.343 20.2064 146.758 19.5552 145.442 18.2528C144.139 16.9363 143.488 15.3539 143.488 13.5053C143.488 11.6568 144.139 10.0813 145.442 8.77891ZM153.345 10.3544C152.475 9.47212 151.424 9.03098 150.192 9.03098C148.959 9.03098 147.901 9.47212 147.019 10.3544C146.149 11.2226 145.715 12.2729 145.715 13.5053C145.715 14.7378 146.149 15.7881 147.019 16.6563C147.901 17.5245 148.959 17.9587 150.192 17.9587C151.424 17.9587 152.475 17.5245 153.345 16.6563C154.228 15.7881 154.669 14.7378 154.669 13.5053C154.669 12.2729 154.228 11.2226 153.345 10.3544Z" fill="#303030"/>
<path d="M165.517 24.6379C165.517 11.307 176.072 0.5 189.092 0.5H233.621C233.621 13.831 223.066 24.6379 210.047 24.6379H165.517Z" fill="#B7D164"/>
<path d="M10.2568 6.75C10.2568 3.29822 13.055 0.5 16.5068 0.5H29.575C29.575 3.95178 26.7767 6.75 23.325 6.75H10.2568Z" fill="#7547DD"/>
<path d="M10.2568 25.5C10.2568 22.0482 13.055 19.25 16.5068 19.25H29.575C29.575 22.7018 26.7767 25.5 23.325 25.5H10.2568Z" fill="#7547DD"/>
<path d="M0.597656 16.409C0.597656 12.6434 3.65026 9.59082 7.41584 9.59082H24.4613C24.4613 13.3564 21.4087 16.409 17.6431 16.409H0.597656Z" fill="#B7D164"/>
<path d="M182.429 6.83063C183.654 6.83063 184.783 7.15496 185.816 7.80376C186.863 8.43841 187.668 9.28462 188.232 10.3424H185.506C184.653 9.49617 183.627 9.07307 182.429 9.07307C181.217 9.07307 180.185 9.51732 179.332 10.4058C178.478 11.2802 178.051 12.338 178.051 13.5791C178.051 14.8202 178.478 15.878 179.332 16.7524C180.185 17.6267 181.217 18.064 182.429 18.064C183.145 18.064 183.813 17.9017 184.432 17.5774C185.052 17.2531 185.562 16.8088 185.96 16.2446H188.48C187.97 17.4575 187.165 18.4448 186.064 19.2063C184.976 19.9538 183.765 20.3276 182.429 20.3276C180.612 20.3276 179.063 19.6718 177.783 18.3601C176.502 17.0344 175.862 15.4407 175.862 13.5791C175.862 11.7174 176.502 10.1308 177.783 8.8192C179.063 7.49344 180.612 6.83063 182.429 6.83063ZM189.738 13.5791V3.08618L191.927 4.2074V13.5791C191.927 14.8343 192.353 15.8991 193.207 16.7735C194.075 17.6479 195.114 18.0851 196.326 18.0851V20.3276C194.508 20.3276 192.952 19.6718 191.659 18.3601C190.378 17.0344 189.738 15.4407 189.738 13.5791ZM207.382 6.83063V15.0811C207.382 16.5196 206.88 17.7537 205.874 18.7832C204.869 19.8128 203.664 20.3276 202.26 20.3276C200.856 20.3276 199.652 19.8128 198.646 18.7832C197.641 17.7396 197.139 16.5055 197.139 15.0811V6.83063H199.328V15.0811C199.328 15.8991 199.617 16.6043 200.195 17.1966C200.773 17.7748 201.461 18.064 202.26 18.064C203.059 18.064 203.747 17.7748 204.325 17.1966C204.904 16.6043 205.193 15.8991 205.193 15.0811V6.83063H207.382ZM209.26 13.5791V3.08618L211.448 4.2074V8.54419C212.702 7.40181 214.168 6.83063 215.847 6.83063C217.664 6.83063 219.213 7.49344 220.493 8.8192C221.774 10.1308 222.414 11.7174 222.414 13.5791C222.414 15.4407 221.774 17.0344 220.493 18.3601C219.213 19.6718 217.664 20.3276 215.847 20.3276C214.016 20.3276 212.46 19.6718 211.18 18.3601C209.9 17.0344 209.26 15.4407 209.26 13.5791ZM215.847 18.0851C217.059 18.0851 218.092 17.6479 218.945 16.7735C219.798 15.885 220.225 14.8202 220.225 13.5791C220.225 12.338 219.798 11.2802 218.945 10.4058C218.092 9.53147 217.059 9.09422 215.847 9.09422C214.635 9.09422 213.596 9.53147 212.729 10.4058C211.876 11.2802 211.448 12.338 211.448 13.5791C211.448 14.8343 211.876 15.8991 212.729 16.7735C213.582 17.6479 214.622 18.0851 215.847 18.0851Z" fill="white"/>
</g>
</svg>
